<svg xmlns="http://www.w3.org/2000/svg" width="512" height="512" viewBox="0 0 512 512">
<defs><linearGradient id="g" x1="0" y1="0" x2="1" y2="1"><stop stop-color="#60a5fa"/><stop offset="1" stop-color="#34d399"/></linearGradient></defs>
<rect width="512" height="512" rx="120" fill="url(#g)"/>
<path d="M142 288c26 50 74 78 130 78 66 0 110-35 110-86 0-46-31-72-103-89-46-11-61-21-61-42 0-22 20-37 51-37 32 0 59 13 84 39l32-45c-31-32-70-48-116-48-66 0-111 39-111 94 0 46 30 72 101 89 47 11 62 22 62 43 0 21-20 34-51 34-42 0-75-18-99-54l-29 24z" fill="white"/>
</svg>